<?xml version="1.0" encoding="UTF-8"?>
<svg id="_레이어_2" data-name="레이어 2" xmlns="http://www.w3.org/2000/svg" viewBox="0 0 190.61 22.34">
  <g id="_레이어_1-2" data-name="레이어 1">
    <g>
      <path d="M9.55,16.15v1.78H.1v-1.43c1.26-1.26,2.48-2.58,3.49-3.63,2.33-2.44,3.3-4.22,3.3-6.07s-1.09-3.13-2.81-3.13c-.34,0-.78,.04-1.24,.15l-.46,1.68c-.27,1.05-.67,1.45-1.26,1.45-.48,0-.88-.25-1.11-.69C.31,3.91,2.33,2.77,4.62,2.77c2.96,0,4.28,1.62,4.28,3.93,0,1.97-1.07,3.55-4.6,6.89-.65,.63-1.64,1.57-2.69,2.56h7.94Z"/>
      <path d="M21.08,10.52c0,5.67-2.37,7.71-4.79,7.71s-4.83-2.04-4.83-7.71,2.35-7.75,4.83-7.75,4.79,2.1,4.79,7.75Zm-4.79,6.82c1.41,0,2.73-1.43,2.73-6.82s-1.32-6.84-2.73-6.84-2.79,1.43-2.79,6.84,1.32,6.82,2.79,6.82Z"/>
      <path d="M32.61,16.15v1.78h-9.45v-1.43c1.26-1.26,2.48-2.58,3.49-3.63,2.33-2.44,3.3-4.22,3.3-6.07s-1.09-3.13-2.81-3.13c-.34,0-.78,.04-1.24,.15l-.46,1.68c-.27,1.05-.67,1.45-1.26,1.45-.48,0-.88-.25-1.11-.69,.31-2.35,2.33-3.49,4.62-3.49,2.96,0,4.28,1.62,4.28,3.93,0,1.97-1.07,3.55-4.6,6.89-.65,.63-1.64,1.57-2.69,2.56h7.94Z"/>
      <path d="M44.71,13.44h-2.44v4.49h-1.85v-4.49h-6.24v-1.11l6.8-9.43h1.28V12.09h2.44v1.34Zm-4.28-1.34V5.02l-5.08,7.08h5.08Z"/>
      <path d="M58.04,10.73c0,.08-.04,.17-.15,.21-1.95,.76-5.12,1.41-7.05,1.55-.25,0-.57,.02-.78,.02-.97,0-1.36-.25-1.68-1.01-.06-.13-.1-.57-.1-1.09V4.05c-.31-.27-.9-.55-1.43-.69l.1-.55c.02-.1,.1-.15,.25-.15,.73,0,2.02,.08,2.56,.21,.23,.04,.34,.19,.34,.44l-.02,1.03v6.3c0,.25,.08,.36,.38,.36,2.06,.02,5.44-.36,7.24-.8,.15-.02,.21,.02,.23,.1l.1,.42Zm3.28,7.2c.65,0,1.62,.06,2.04,.17,.19,.04,.31,.15,.31,.31,0,.46-.15,.76-.27,.88-.06,.08-.17,.1-.29,.1l-8.92,.06h-.02c-1.43-.02-1.93-.52-1.93-1.72v-2.65c-.34-.27-.92-.5-1.49-.65l.13-.5c.02-.1,.1-.15,.25-.15,.73,0,2.04,.08,2.6,.21,.23,.04,.34,.19,.34,.44l-.02,.97v2.44c0,.38,.15,.55,.5,.55,1.3,.02,4.83,0,6.05-.06l.73-.4Zm-.8-9.66c-1.01-.02-2.56,.02-3.17,.1-.38,.04-.97,.19-1.34,.31-.61-.27-1.18-.61-1.6-.97-.08-.08-.1-.15-.06-.23l.13-.23c.52,.06,1.22,.1,1.78,.1,.84,0,3.02-.06,4.26-.13v-2.41c-1.01-.02-2.48,.02-3.11,.08-.38,.04-.94,.19-1.32,.31-.63-.25-1.18-.61-1.62-.97-.08-.06-.1-.15-.06-.21l.13-.25c.55,.08,1.24,.13,1.78,.13,.82,0,2.98-.06,4.2-.13V1.78c-.36-.44-1.01-.84-1.74-1.09l.19-.59c.02-.08,.08-.1,.27-.1,.82,.02,2.2,.31,2.83,.57,.19,.08,.27,.23,.27,.46l-.06,1.13V10.69c0,1.51-.23,3.32-.59,4.41h-1.01c-.13-.84-.17-2.83-.17-3.82v-3Z"/>
      <path d="M81.33,16.15v1.78h-9.45v-1.43c1.26-1.26,2.48-2.58,3.49-3.63,2.33-2.44,3.3-4.22,3.3-6.07s-1.09-3.13-2.81-3.13c-.34,0-.78,.04-1.24,.15l-.46,1.68c-.27,1.05-.67,1.45-1.26,1.45-.48,0-.88-.25-1.11-.69,.31-2.35,2.33-3.49,4.62-3.49,2.96,0,4.28,1.62,4.28,3.93,0,1.97-1.07,3.55-4.6,6.89-.65,.63-1.64,1.57-2.69,2.56h7.94Z"/>
      <path d="M89.06,10.04c-.76,.08-1.47,.15-2.06,.19-.4,.04-1.32,.25-1.7,.4-.76-.31-1.55-.8-2.14-1.3-.08-.06-.1-.13-.06-.23l.15-.27c.73,.13,1.64,.17,2.35,.17,2.67,0,7.92-.42,10.48-.9,.1-.02,.19,.02,.21,.1l.08,.44c.02,.13-.04,.17-.15,.19-1.28,.36-3.38,.71-5.4,1.01v.84c0,.78-.21,1.85-.46,2.48h-1.13c-.13-.57-.17-1.51-.17-2.12v-.99Zm-3.63-5.42c0-1.95,1.93-3.21,4.35-3.21s4.37,1.26,4.37,3.21-1.95,3.19-4.37,3.19-4.35-1.26-4.35-3.19Zm1.72,0c0,1.3,1.15,2.08,2.62,2.08s2.65-.78,2.65-2.08-1.18-2.1-2.65-2.1-2.62,.78-2.62,2.1Zm11.36,13.94c.59-.02,1.47,.06,1.87,.15,.19,.06,.31,.17,.31,.34,0,.42-.15,.69-.25,.8-.06,.08-.19,.1-.29,.1l-9.72,.06c-1.2-.02-1.62-.42-1.62-1.41v-1.55c-.27-.27-.71-.46-1.2-.57l.08-.44c.02-.06,.1-.13,.23-.13,.63,0,2.12,.04,2.73,.13,1.45,0,5.46-.06,6.3-.1l.36-.1c.04-.4,.06-1.34,.04-1.7-1.39-.02-5.42,.04-6.3,.08-.4,.02-1.22,.17-1.72,.31-.67-.25-1.28-.65-1.76-1.03-.08-.06-.08-.13-.06-.21l.15-.25c.57,.13,1.45,.19,1.97,.19,1.13,0,6.61-.06,7.89-.1l.67-.31c.1-.06,.23-.06,.36,0,.25,.1,.73,.31,.92,.44,.08,.06,.1,.17,.04,.31l-.25,.55c-.06,.5-.27,1.36-.44,1.76l.4,.19c.08,.04,.13,.13,.13,.21,0,.27-.1,.52-.21,.63l-8.52,.1v1.53c0,.27,.1,.4,.38,.4,1.6,.02,5.56,0,6.87-.06l.65-.31Zm-.8-16.78c-.36-.44-1.01-.84-1.74-1.09l.19-.59c.02-.08,.08-.1,.27-.1,.82,.02,2.2,.31,2.83,.57,.19,.08,.27,.23,.27,.46l-.06,1.13v6.45c0,1.24-.23,2.79-.57,3.63h-1.03c-.04-.25-.08-.65-.1-1.09-.71,.06-1.66,.15-2.06,.21-.38,.04-.92,.19-1.28,.34-.59-.23-1.09-.52-1.51-.84-.06-.06-.08-.15-.04-.21l.13-.25c.5,.04,1.13,.06,1.66,.06,.65-.02,2.06-.1,3.07-.23-.02-.42-.02-.82-.02-1.09V1.78Z"/>
      <path d="M118.14,17.22v.71h-8.48v-.71l3.28-.46c.02-1.22,.04-2.46,.04-3.67V4.6l-3.07,.29v-.8l4.72-1.22,.31,.23-.08,3.3v6.68c0,1.22,.02,2.46,.04,3.67l3.23,.46Z"/>
      <path d="M129.38,3.36c-4.39,1.05-6.55,3.36-6.91,6.95,.97-.97,2.16-1.49,3.42-1.49,2.5,0,4.18,1.76,4.18,4.51,0,3.13-1.93,4.89-4.7,4.89-3.07,0-4.98-2.37-4.98-6.42,0-4.54,3.17-8.38,8.86-9.03l.13,.59Zm-6.97,8.13c0,3.95,1.13,5.86,3.02,5.86,1.57,0,2.67-1.24,2.67-3.76s-1.09-3.51-2.73-3.51c-.99,0-2.06,.27-2.96,1.07v.34Z"/>
      <path d="M137.76,10.2c-2.71,0-4.68-1.7-4.68-4.09s1.97-4.07,4.68-4.07,4.64,1.68,4.64,4.07-1.95,4.09-4.64,4.09Zm0-1.34c1.66,0,2.9-1.05,2.9-2.75s-1.24-2.77-2.9-2.77-2.9,1.05-2.9,2.77,1.24,2.75,2.9,2.75Zm9.32,9.36c.59-.02,1.45,.04,1.87,.15,.19,.04,.31,.17,.31,.34,0,.4-.15,.69-.25,.8-.08,.08-.17,.1-.29,.1l-9.43,.06c-1.2-.02-1.62-.42-1.62-1.41v-1.97c-.27-.27-.71-.46-1.2-.57l.08-.44c.02-.06,.1-.13,.23-.13,.63,0,2.14,.04,2.73,.13,1.26,0,5.19-.06,6.03-.1l.36-.1c.04-.48,.06-1.64,.04-2.1-1.32-.02-5.06,.02-5.88,.06-.4,.02-1.22,.17-1.72,.34-.67-.27-1.28-.65-1.76-1.03-.08-.08-.08-.15-.06-.23l.15-.23c.57,.1,1.45,.17,1.97,.17,1.07,0,6.19-.04,7.47-.1l.67-.31c.1-.04,.23-.04,.36,0,.25,.1,.71,.34,.92,.46,.08,.06,.1,.17,.04,.29l-.27,.57c-.04,.61-.25,1.66-.42,2.16l.38,.19c.08,.04,.15,.13,.15,.21,0,.27-.1,.52-.21,.63l-8.25,.1v1.95c0,.27,.1,.4,.38,.4,1.53,.02,5.31,0,6.57-.06l.65-.31Zm-.8-16.44c-.36-.44-1.01-.84-1.74-1.09l.19-.59c.02-.08,.08-.1,.27-.1,.82,.02,2.2,.31,2.83,.57,.19,.08,.27,.23,.25,.46l-.04,1.13V7.47c0,1.2-.23,2.67-.57,3.44h-1.05c-.1-.67-.15-2.18-.15-2.94V1.78Z"/>
      <path d="M163.82,21.96l-.48,.38c-3.25-3.04-4.81-6.55-4.81-10.79s1.55-7.75,4.81-10.81l.48,.4c-2.75,3.91-3.55,6.66-3.55,10.41s.82,6.53,3.55,10.41Z"/>
      <path d="M181.56,8.4c.8,.02,1.93,.17,2.44,.34,.19,.06,.29,.19,.29,.38,0,.42-.27,.78-.5,.88-.55-.06-1.85-.1-2.48-.1-1.47,0-10.81,.1-11.97,.17-.55,.04-1.66,.25-2.18,.42-.8-.27-1.6-.76-2.14-1.22-.06-.06-.08-.15-.06-.21l.17-.31c.73,.13,1.72,.21,2.41,.21,.97,.02,6.8-.04,10.44-.13,.4-1.72,.65-4.28,.69-5.92-1.72-.02-5.94,.04-6.89,.1-.5,.02-1.41,.19-1.91,.36-.69-.27-1.41-.69-1.91-1.11-.08-.08-.1-.17-.08-.25l.15-.29c.69,.13,1.57,.21,2.2,.21,1.07,0,7.1-.1,8.55-.17l.8-.36c.1-.04,.27-.04,.38,0,.29,.1,.84,.42,1.03,.55,.1,.08,.1,.17,.04,.29l-.31,.76c-.17,1.72-.8,4.12-1.51,5.82,.73-.02,1.3-.04,1.57-.06l.8-.34Zm-2.75,3.97c.1-.04,.25-.04,.36,0,.27,.1,.78,.36,.97,.48,.08,.06,.08,.15,.06,.27l-.25,.78c-.08,1.26-.25,2.73-.48,4.03l.4,.19c.13,.06,.17,.17,.17,.27,0,.36-.15,.67-.29,.8l-8.15,.08c-.04,.23-.15,.42-.29,.59h-.99c-.13-.27-.21-.71-.25-1.09l-.34-4.91c-.23-.25-.67-.52-1.09-.67l.13-.48c.02-.08,.08-.1,.21-.1,.67,0,1.91,.1,2.58,.21,1.55,0,5-.04,6.51-.13l.76-.31Zm-7.16,5.77c1.72,.02,4.56-.02,5.96-.1l.42-.1,.06-4.07c-2.04-.02-4.51,.02-6.51,.08l.06,4.2Z"/>
      <path d="M185.34,1.13l.48-.4c3.23,3.07,4.79,6.55,4.79,10.81s-1.55,7.75-4.79,10.79l-.48-.38c2.73-3.93,3.53-6.68,3.53-10.41s-.82-6.53-3.53-10.41Z"/>
    </g>
  </g>
</svg>