<?xml version="1.0" encoding="UTF-8"?><svg id="_레이어_2" xmlns="http://www.w3.org/2000/svg" viewBox="0 0 465.23 551.02"><defs><style>.cls-1{stroke:#212121;stroke-miterlimit:10;stroke-width:.25px;}.cls-1,.cls-2{fill:#212121;}.cls-2{stroke-width:0px;}</style></defs><g id="_레이어_1-2"><g id="title"><path class="cls-2" d="m45.01,56.44c2.73,0,4.44.91,4.44,2.62-.11,1.82-2.16,2.84-5.35,2.84-5.46,0-11.04.11-15.59.23-4.67.11-8.53.23-10.36.23-.45,3.3-2.73,5.12-4.44,5.12-1.48,0-3.53-1.82-3.98-6.83l-1.93-31.86c-.11-2.39-1.25-3.87-6.26-4.78-1.25-.34-1.71-1.14-1.48-2.39.34-1.25,1.25-2.05,2.73-2.16,4.1-.11,10.13.45,16.04,1.37,5.01,0,11.04,0,15.93-.8.91,0,1.48-.34,1.82-.46.45,0,.91-.34,1.37-.45.34-.11.8-.34,1.36-.45,3.19-.11,6.37.11,8.99.57,2.73.8,2.84,2.84,1.94,4.21-.8,1.02-1.48,2.73-1.82,4.55l-3.41,28.45Zm-6.71-30.84l-20.82.34,1.03,30.61,18.55-.11,1.25-30.84Zm6.37,78.06c-3.07,0-5.69-.57-8.08-1.59-2.28-1.02-3.41-3.3-3.41-6.94v-11.27c0-1.48-.34-3.53-1.71-4.44-1.71-.91-4.21-1.59-7.51-2.05-1.02,0-1.37-1.25-1.25-2.28.34-1.02,1.14-2.28,2.62-2.39h3.76c1.48,0,3.19,0,4.89.11,3.3.11,6.71.34,9.33.8.91.46,1.48,2.16,1.02,3.64-.34.91-.45,3.87-.45,5.69v11.83c0,2.73,1.94,3.53,4.21,3.53l24.58-.23c2.28,0,5.46-.23,8.53-1.71.45-.34,1.59-1.02,2.96-1.14,3.07-.11,6.6,0,9.33.34,3.07.45,4.66,2.28,4.66,4.1s-1.59,3.53-4.78,3.53l-48.7.45Zm34.14-59.63l-11.61.45v19.8c0,11.83-2.84,20.03-5.58,20.03-2.73.11-3.64-6.26-3.64-14.57V20.48c0-3.64-.57-6.26-2.39-7.62-1.82-1.37-4.44-2.62-7.51-3.19-1.25-.11-1.48-1.37-1.37-2.39.34-1.02,1.14-2.05,2.84-2.05,5.46.34,11.83,1.02,17.3,2.73.91.45,1.71,1.82,1.25,3.53-.57,1.82-.91,4.32-.91,6.94v20.03l11.61-.46V15.36c0-3.64-.45-6.14-2.39-7.51-2.16-1.37-5.12-2.73-8.31-3.3-1.25-.11-1.71-1.48-1.37-2.5.34-1.02,1.14-2.05,2.84-2.05,5.35.34,12.75,1.14,18.21,2.84.91.45,1.71,1.82,1.25,3.53-.57,2.16-1.03,4.55-1.03,6.94v51.78c0,11.83-2.84,20.14-5.58,20.14-2.73.11-3.64-6.26-3.64-14.57v-26.63Z"/><path class="cls-2" d="m78.07,167.74c2.62-.34,5.92-.11,8.08,0,3.64.8,3.41,3.19,2.5,5.46-.34.57-.46,1.14-.8,1.59-.11.46-.46,1.02-.46,1.48-.45,2.28-1.25,5.69-2.16,8.99-.91,3.53-1.82,7.06-2.73,9.79-1.82,5.12-3.41,8.88-5.8,10.24,3.3-.11,5.24-.68,6.14-1.14.91-.46,2.5-.8,3.53-.91,3.98-.34,7.85-.23,11.83.11,4.55.46,7.17,1.59,7.17,4.21-.11,3.07-3.07,3.76-7.28,3.76-4.67,0-12.06-.11-19.8-.11s-15.7-.11-21.51-.23c-4.44,0-9.9.23-15.02.34-5.01.34-10.01.68-12.86.8-1.37.11-2.62.34-3.64.68-.91.34-1.93.8-2.84.91-2.16.8-4.44,1.14-8.88.11-2.73-.45-6.49-1.82-10.58-4.1-4.44-2.28-3.98-5.46,1.93-4.67,6.83.91,15.36,1.14,22.76,1.14h5.92c-.45-1.82.8-6.83,2.62-13.2,1.71-6.83,2.73-13.77,3.19-18.32-3.64.34-8.76.8-11.04,1.71-1.82.91-3.53,1.71-7.06.34-2.16-.57-5.23-2.05-7.97-3.98-2.73-1.82-2.39-4.44,1.14-3.87,2.16.45,6.71.91,9.44.91,3.98,0,9.22-.11,11.95-.68.57,0,1.37-.23,1.93-.57.11,0,.57-.23.91-.34s.68-.34,1.14-.45c2.39-.34,6.14-.23,8.53.11.8.11,1.37.46,1.94.57.45.34.8.34,1.14.34.11.11.34.11.57.11h2.5c2.62.45,6.6.91,9.33.91,3.76.11,7.17-.11,9.79-.57.8-.11,1.59-.34,2.16-.68.34,0,.57-.23,1.02-.34.11-.11.34-.11.57-.23l.68-.23Zm-3.07,7.17c-.68.11-1.25.11-1.82.11-1.25.11-2.05.34-2.5.34-.91.11-1.71.34-2.5.68-.8.11-1.37.57-1.93.68-1.48.57-2.96,1.14-5.69.11-.91-.34-1.93-.68-3.19-1.14-1.02-.45-2.39-1.14-3.75-2.05-.34,0-.57-.34-1.02-.34-.45-.11-.8-.11-1.25,0-.45,0-1.25,1.25-1.71,3.53-.57,2.16-1.25,4.44-2.05,7.06-.8,2.73-1.71,5.8-2.96,9.1-2.62,6.94-4.67,11.49-7.51,13.2,5.92,0,12.4-.11,18.66-.11s12.06-.11,16.96-.23c-.46-.8-.34-2.16,0-4.1.34-1.93,1.02-4.55,1.59-7.74.45-2.84,1.14-6.83,1.59-10.47.46-3.53.8-6.94,1.14-8.88l-2.05.23Zm-35.62,91.15c-6.37.11-11.83-1.14-11.83-8.31v-22.99c0-2.62-1.25-3.98-2.96-4.89-1.71-.91-3.64-1.02-5.01-1.37-1.37-.11-2.16-1.37-2.05-2.39.11-1.25,1.25-2.28,3.64-2.28,2.73,0,6.03.23,9.1.57,1.48.11,2.96.34,4.32.46l3.41.23c3.07.34,7.74.34,11.95.34h5.8c1.71,0,2.96,0,3.76-.11,2.84,0,5.69-.57,8.42-1.59.45-.11,1.37-.68,2.28-.8,3.19-.46,8.08-.23,10.93.11,3.07.57,4.55,2.5,4.44,4.21-.11,1.82-2.05,3.41-5.8,3.41h-41.99v12.06l20.26-.11c2.39,0,5.8.11,8.65-1.14.45-.11.91-.45,1.48-.57.57-.34,1.25-.45,2.05-.57h5.01c1.82,0,3.3,0,4.44.11,2.73.34,4.55,2.05,4.55,3.76.11,1.71-1.25,3.41-4.89,3.41l-41.54.46v9.22c0,2.73,2.05,3.41,4.21,3.41l20.48-.23c2.62,0,5.46-.11,8.53-1.59.11-.11.57-.23,1.02-.57.45-.11.91-.34,1.71-.45,3.07-.34,7.51,0,9.9.11,3.19.46,4.78,2.28,4.78,4.1-.11,1.82-2.05,3.53-5.69,3.53l-43.36.46Z"/><path class="cls-2" d="m81.03,313.63c.57,0,1.48.11,2.62.45,3.3.91,6.37,2.62,9.1,4.1,1.48,1.25,2.05,3.07,1.25,4.44-.91,1.37-3.19,2.16-6.94.91-3.64-1.02-9.1-2.5-15.02-4.21-5.92-1.48-12.52-3.3-18.09-5.01-11.83,5.58-24.58,9.9-36.41,11.83-3.76.91-5.69.34-6.49-.57s-.34-2.16.91-2.73c8.19-1.71,18.32-5.35,27.99-9.9,9.9-4.67,19.35-10.36,26.63-16.27-4.1.34-9.44.46-14.34.57-4.89.34-9.1.46-10.58.46-1.36.11-2.73.45-3.75.8-1.25.45-2.16.91-2.96,1.02-1.82.57-3.53,1.14-6.37.23-1.82-.45-5.24-1.93-7.97-3.64-3.98-2.28-3.07-4.89,1.59-4.44.8.11,2.62.34,4.89.46,2.28.11,5.01.23,7.74.23h6.26c2.62,0,5.24,0,7.97-.11,5.46-.11,10.93-.45,14.57-.91,1.37-.11,2.39-.34,3.19-.68.34,0,.57-.23,1.03-.34.34-.11.8-.34,1.25-.34,3.53,0,7.28.11,9.67.46,3.3.45,3.87,3.19,2.39,5.58-.91,1.48-2.73,3.07-5.01,4.89-4.89,3.64-10.24,7.17-16.96,9.9,3.19.57,6.71,1.25,9.79,1.71,3.07.57,5.35,1.02,6.26,1.02,1.71.34,2.84.23,4.21.11h1.59Zm-42.22,75.79c-3.19,0-6.03-.11-8.31-1.14-2.16-1.02-3.41-2.96-3.41-6.6v-6.03c0-3.19-2.39-4.21-6.03-4.55-1.48,0-2.16-1.25-2.05-2.28.11-1.25.91-2.28,2.39-2.39,3.3,0,11.04.23,16.61,1.02,2.62.11,9.44.11,16.39,0,6.83,0,13.77-.11,16.62-.23l.57-10.92c-2.39,0-8.65.11-14.68.11s-11.83.11-13.31.11c-2.73.34-6.71,1.59-7.51,1.93-1.25.45-3.07,1.02-5.8,0-2.28-.8-6.37-2.73-8.65-4.55-2.16-1.71-1.48-3.87,1.71-3.41,4.21.57,10.24,1.02,15.25,1.02.57,0,1.93.11,3.64.11,1.82,0,3.87.11,6.49.11v-13.66c-7.74.11-15.7.57-19.8,1.02-1.37.11-2.62.34-3.64.68-.91.34-1.93.8-2.84.91-2.16.8-4.44,1.14-8.88.11-2.73-.46-6.49-1.82-10.58-4.1-4.44-2.28-3.98-5.46,1.93-4.67,6.83.91,15.25,1.14,22.53,1.14h10.24c4.21,0,8.65,0,13.2-.11,9.1,0,18.32-.23,24.24-.34,3.19,0,6.37-1.14,7.62-1.59,1.02-.45,2.62-.8,3.64-.91,3.98-.34,7.85-.23,11.83.11,4.55.45,7.17,1.59,7.17,4.21-.11,3.07-3.07,3.76-7.28,3.76s-10.81-.11-17.98-.11-14.68-.11-20.71-.11v13.54h1.82c.57,0,1.14,0,1.59-.11h1.37c.45,0,.91,0,1.25-.11,2.28-.11,3.98-.45,4.44-.8.11,0,.57-.11,1.02-.46.34-.11.68-.34,1.14-.45,3.07-.34,7.62-.23,10.01.23,2.16.57,2.16,2.39,1.71,3.76-.45.91-.91,2.28-1.25,3.53l-2.73,9.9c2.62.11,3.98,1.14,3.98,2.5,0,1.82-.68,2.84-5.12,2.84-3.3,0-12.18.11-20.94.23-4.33.11-8.42.11-12.29.11h-7.97v7.85c0,2.62,1.82,3.41,4.44,3.41l21.62-.23c2.73,0,5.69-.11,8.42-1.48.57-.45,1.59-.91,2.84-1.02,3.07-.11,7.74,0,10.01.11,3.19.45,4.78,2.28,4.67,4.1,0,1.82-1.82,3.53-5.46,3.53l-45.18.34Z"/><path class="cls-2" d="m48.26,519.17c0-1.48-.23-3.64-1.59-4.55-1.71-1.02-4.1-2.05-6.83-2.39-1.02,0-1.59-1.25-1.25-2.28.11-1.03,1.02-2.16,2.5-2.28,1.93,0,5.12,0,8.31.34,3.19.11,6.49.46,9.1.91.91.46,1.48,2.16,1.02,3.64-.46,1.02-.57,5.23-.57,6.6l-.11,17.98c2.84,0,5.58-.11,7.97-.11,2.39-.12,4.55-.12,6.49-.23,3.19,0,6.49-1.14,7.51-1.59,1.25-.45,2.5-.8,3.75-.91,3.98-.34,7.74-.23,11.83.11,4.55.45,7.17,1.59,7.17,4.21-.11,3.07-3.07,3.76-7.28,3.76-4.67,0-11.84-.11-19.12-.11s-15.02-.11-20.82-.23c-4.44,0-9.79.23-14.79.34-5.01.34-9.79.68-12.63.8-1.37.11-2.62.34-3.53.68-1.02.34-1.93.8-2.84.91-2.28.8-4.67,1.14-8.88.11-2.73-.45-6.49-1.82-10.7-4.1-4.55-2.28-3.87-5.46,2.05-4.67,6.83.91,15.13,1.14,22.42,1.14h9.1c3.64,0,7.51,0,11.72-.11v-17.98Zm21.62-20.6c-6.83-4.21-14.22-8.65-19.23-11.49-9.67,10.35-22.08,19-35.73,24.47-3.53,1.48-5.46,1.25-6.37.45-.8-.8-.45-2.16.91-3.07,8.08-3.64,16.39-9.56,23.21-16.27,6.83-6.71,12.29-14,15.02-20.82,1.36-3.3-.23-4.55-3.87-6.26-3.98-2.16-2.84-5.24,1.25-4.67,4.55.8,10.13,2.39,14.57,4.1,2.73,1.36,3.19,3.3,2.39,5.12-.46.91-1.59,2.84-2.16,3.75-1.82,2.84-3.75,5.8-6.03,8.19,3.3,1.82,7.85,4.21,11.95,6.37,4.1,1.93,7.74,3.76,9.1,4.21,1.25.46,2.16.68,2.96,1.03.8.11,1.37.23,1.82.23,1.02,0,2.5.23,3.98,1.14,2.73,1.71,6.71,4.55,9.1,7.62,1.82,2.28,2.05,5.12.8,6.49-1.25,1.48-3.75,1.82-7.4-.8-3.07-1.71-9.33-5.69-16.27-9.79Z"/><path class="cls-2" d="m157.51,551c-3.07.11-5.69-.45-8.08-1.48-2.28-1.03-3.41-3.41-3.41-7.06v-11.61c0-1.48-.45-3.53-1.82-4.44-1.48-.91-4.1-1.59-7.4-2.05-1.02,0-1.59-1.25-1.25-2.28.11-1.03,1.02-2.28,2.5-2.39h3.75c1.59,0,3.19,0,4.89.11,3.3.11,6.71.34,9.33.8.91.45,1.59,2.16,1.14,3.64-.34.91-.45,3.87-.45,5.69v12.18c0,2.73,1.94,3.53,4.21,3.53l19-.23c2.39,0,5.46-.23,8.53-1.71.45-.34,1.71-1.02,2.96-1.14,3.07-.11,6.6,0,9.33.34,3.19.45,4.66,2.28,4.66,4.1s-1.59,3.53-4.78,3.53l-43.13.45Zm31.48-59.74c-1.71.11-3.64.11-5.12.23-1.48,0-2.84.11-3.3.11-1.71.34-4.1.8-6.37,1.71-3.19,1.37-5.23,1.25-7.4.34-1.82-.45-5.24-2.05-7.97-3.75-3.19-2.16-2.5-4.32,1.48-3.87,2.16.34,7.74.45,11.38.45,4.44,0,11.95-.11,17.3-.45v-12.06c-3.3,0-7.74.23-8.76.34-1.48.34-3.98.8-6.26,1.71-3.19,1.36-5.24,1.25-7.4.34-1.82-.46-5.24-2.05-7.97-3.76-3.19-2.16-2.5-4.33,1.48-3.87,2.16.34,7.62.45,11.27.45,4.55,0,12.29-.11,17.64-.45v-6.14c0-3.53-.45-5.92-2.28-7.28-2.62-1.82-6.26-2.84-9.56-3.41-1.25-.11-1.48-1.48-1.36-2.5.34-1.02,1.14-2.05,2.84-2.05,2.84.11,6.26.34,10.24.91,3.98.46,7.28,1.14,10.01,1.94.91.45,1.71,1.82,1.25,3.53-.8,2.28-1.14,4.67-1.25,6.94v51.55c0,11.83-3.19,20.14-5.92,20.14-2.73.11-3.98-6.37-3.98-14.68v-26.4Zm-65.66-16.39c0-2.16-.8-3.87-2.16-4.89-1.82-1.02-5.23-1.93-7.97-2.28-1.02,0-1.37-1.25-1.25-2.27.11-1.25,1.02-2.28,2.5-2.39,5.46-.11,13.31.34,19.12,1.25,1.02.34,1.59,2.05,1.14,3.53-.34.91-.91,3.07-1.02,5.23v27.31c0,3.19,2.16,3.87,4.44,3.75,4.1,0,10.13-.91,16.5-2.16,6.37-1.36,12.97-2.84,18.43-4.55.91-.34,1.71.46,1.82,1.48.11,1.02-.45,2.39-1.93,3.3-5.58,2.39-12.4,4.78-19.35,6.6-6.94,1.82-14.22,3.19-20.6,3.75-6.49.8-9.67-1.71-9.67-8.53v-29.13Z"/><path class="cls-1" d="m256.33,498.27c.83,0,1.22-.32,1.49-.8.19-.37.62-1.49.76-1.89.04-.09.11-.12.21-.09.09.02.14.11.12.23-.14.87-.44,2.16-.62,3.04-.04.11-.11.16-.21.16h-.34c-.73,0-2.37-.05-3.13-.05h-.35c-.25,0-4.02.07-4.41.07-.14,0-.21-.07-.21-.23,0-.19.09-.21.18-.23.41-.05.83-.07,1.27-.27.16-.07.37-.35.37-.83v-9.9c0-.48-.14-.8-.51-.92-.28-.09-.62-.12-.96-.14-.09,0-.18-.03-.18-.23,0-.16.07-.23.21-.23h.41c.8,0,2.51.05,3.27.05h.67c.66,0,2.05-.05,2.69-.05h.3c.11,0,.18.05.21.16.16.9.28,1.57.42,2.44.02.12-.04.21-.12.23-.11.03-.18,0-.21-.09-.14-.41-.35-.9-.55-1.31-.27-.48-.58-.78-1.42-.78h-2.02c-.27,0-.55.04-.76.16-.21.12-.32.41-.32.78v3.86c0,.21.04.27.25.27h2.27c.99,0,1.08-.23,1.22-.57.12-.35.19-.66.32-1.13.05-.14.07-.16.19-.14.12.02.18.02.16.21-.05.69-.09,1.95-.09,2.05s.04,1.42.09,2.12c.02.19-.04.19-.16.21-.12.02-.14,0-.19-.14-.09-.48-.19-.97-.34-1.4-.14-.32-.23-.58-1.22-.58h-2.25c-.16,0-.25.09-.25.25v4.76c0,.37.11.66.32.78.23.12.5.16.76.16h2.64Z"/><path class="cls-1" d="m263.04,497.47c0,.51.11.71.39.83.35.12.57.12.9.18.12.02.18.09.18.23,0,.16-.07.23-.21.23-.21,0-1.52-.03-1.79-.03s-1.66.03-1.84.03c-.14,0-.21-.07-.21-.23,0-.14.05-.21.18-.23.34-.05.58-.05.94-.18.28-.12.39-.32.39-.83v-11.08c0-.43-.57-.48-1.04-.53-.19-.02-.19-.04-.21-.19-.02-.11.05-.18.18-.19.62-.14,1.38-.44,1.96-.78.14-.07.27,0,.25.16-.04.3-.05.62-.05.97v11.65Z"/><path class="cls-1" d="m276.86,499.03c-2.53,0-4.46-1.43-4.46-4.18,0-2.92,2.18-4.67,4.78-4.67,1.47,0,2.66.65,2.94,1.61.19.62-.11.96-.51.96-.37,0-.62-.3-.73-.88-.05-.28-.14-.46-.41-.67-.3-.27-.9-.32-1.59-.32-1.79,0-3.19,1.65-3.19,3.61,0,2.18,1.58,3.65,3.52,3.65,1.08,0,2.04-.25,2.66-.87.09-.09.16-.11.21-.09.07.03.07.12.02.25-.42.9-1.75,1.61-3.24,1.61Z"/><path class="cls-1" d="m290.3,497.47c0,.51.11.71.39.83.35.12.57.12.9.18.12.02.18.09.18.23,0,.16-.07.23-.21.23-.21,0-1.52-.03-1.79-.03-.28,0-1.61.03-1.81.03-.14,0-.21-.07-.21-.23,0-.14.05-.21.18-.23.34-.05.55-.05.9-.18.28-.12.39-.32.39-.83v-4.18c0-1.56-.74-2.2-2.21-2.2-.97,0-1.7.37-2.14,1.03-.09.12-.19.44-.19.64v4.71c0,.51.11.71.39.83.35.12.53.12.87.18.12.02.18.09.18.23,0,.16-.07.23-.21.23-.19,0-1.47-.03-1.75-.03-.27,0-1.66.03-1.84.03-.14,0-.21-.07-.21-.23,0-.14.05-.21.18-.23.34-.05.58-.05.94-.18.28-.12.39-.32.39-.83v-11.12c0-.42-.57-.48-1.04-.53-.19-.02-.19-.03-.21-.19-.02-.11.05-.18.18-.19.62-.14,1.38-.44,1.96-.78.14-.07.27,0,.25.16-.04.3-.05.62-.05.97v5.38c0,.12.11.14.18.07.66-.71,1.58-1.03,2.55-1.03,1.77,0,2.9.9,2.9,2.69v4.57Z"/><path class="cls-1" d="m296.41,497.47c0,.51.11.71.39.83.35.12.57.12.9.18.12.02.18.09.18.23,0,.16-.07.23-.21.23-.21,0-1.52-.03-1.79-.03s-1.66.03-1.84.03c-.14,0-.21-.07-.21-.23,0-.14.05-.21.18-.23.34-.05.58-.05.94-.18.28-.12.39-.32.39-.83v-5.36c0-.43-.57-.48-1.04-.53-.19-.02-.19-.04-.21-.19-.02-.11.05-.18.18-.19.62-.14,1.38-.44,1.96-.78.14-.07.27,0,.25.16-.04.3-.05.62-.05.97v5.93Zm-.67-8.34c-.57,0-1.03-.42-1.03-1.04,0-.58.46-1.03,1.03-1.03s1.01.44,1.01,1.03c0,.62-.44,1.04-1.01,1.04Z"/><path class="cls-1" d="m304.46,499.03c-2.53,0-4.46-1.43-4.46-4.18,0-2.92,2.18-4.67,4.78-4.67,1.47,0,2.66.65,2.94,1.61.19.62-.11.96-.51.96-.37,0-.62-.3-.73-.88-.05-.28-.14-.46-.41-.67-.3-.27-.9-.32-1.59-.32-1.79,0-3.19,1.65-3.19,3.61,0,2.18,1.58,3.65,3.52,3.65,1.08,0,2.04-.25,2.66-.87.09-.09.16-.11.21-.09.07.03.07.12.02.25-.42.9-1.75,1.61-3.24,1.61Z"/><path class="cls-1" d="m314.02,498.97c-2.32,0-4.25-1.4-4.25-4.46,0-2.85,1.84-4.37,4.25-4.37s4.25,1.52,4.25,4.37c0,.76-.11,1.43-.34,2-.67,1.66-2.16,2.46-3.91,2.46Zm2.96-4.48c0-2.42-1.1-3.72-2.96-3.72s-2.96,1.29-2.96,3.72c0,2.18,1.17,3.84,2.96,3.84.44,0,.85-.11,1.22-.3,1.08-.55,1.73-1.93,1.73-3.54Z"/><path class="cls-1" d="m334.63,497.24c0,.35.05.55.28.69.27.12.64.12,1.04.07.09-.02.16.04.18.14.04.16-.02.25-.16.28-.8.19-1.45.37-2.23.64-.12.03-.18,0-.18-.12v-.85c0-.12-.09-.18-.18-.11-.87.69-1.95,1.04-3.1,1.04-1.98,0-3.5-1.68-3.5-4.25,0-2.82,2.32-4.6,4.37-4.6.94,0,1.59.18,2.28.55.07.05.11.03.11-.07v-4.3c0-.42-.57-.48-1.04-.53-.19-.02-.19-.03-.21-.19-.02-.11.05-.18.18-.19.62-.14,1.38-.44,1.96-.78.14-.07.27,0,.25.16-.04.3-.05.62-.05.99v11.44Zm-.94-4.73c0-.76-1.08-1.77-2.73-1.77-1.79,0-2.99,1.72-2.99,3.59,0,2.35,1.33,3.75,3.2,3.75.76,0,1.7-.16,2.28-.64.16-.14.23-.18.23-.66v-4.28Z"/><path class="cls-1" d="m339.27,494.12c-.27,0-.27.11-.25.34.14,2.6,1.75,3.47,3.65,3.47,1.2,0,1.88-.44,2.43-1.06.09-.11.16-.14.25-.11.11.04.12.12.07.25-.48,1.03-1.81,1.97-3.5,1.97-2.25,0-4.12-1.52-4.12-4.27,0-3.03,2.21-4.58,4.43-4.58,2.6,0,3.5,2.02,3.36,3.75-.02.19-.16.32-.3.32l-6-.07Zm5.19-1.13c0-1.2-.94-2.16-2.34-2.16-1.88,0-3.04,1.42-3.04,2.48,0,.19.02.19.21.19,1.24,0,3.89-.02,4.73-.07.41-.02.44-.18.44-.44Z"/><path class="cls-1" d="m356.04,497.47c0,.51.11.71.39.83.35.12.57.12.9.18.12.02.18.09.18.23,0,.16-.07.23-.21.23-.21,0-1.52-.03-1.79-.03s-1.66.03-1.84.03c-.14,0-.21-.07-.21-.23,0-.14.05-.21.18-.23.34-.05.58-.05.94-.18.28-.12.39-.32.39-.83v-11.08c0-.43-.57-.48-1.04-.53-.19-.02-.19-.04-.21-.19-.02-.11.05-.18.18-.19.62-.14,1.38-.44,1.96-.78.14-.07.27,0,.25.16-.04.3-.05.62-.05.97v11.65Z"/><path class="cls-1" d="m366.41,496.78c0,.66.19,1.15.76,1.15.35,0,.62-.34.69-.5.07-.19.32-.09.25.18-.19.83-.73,1.45-1.52,1.45-.73,0-1.19-.51-1.33-1.38-.05-.12-.11-.16-.18-.07-.74.57-1.95,1.54-3.59,1.54-1.13,0-1.75-.66-1.75-1.72,0-.8.37-1.45.99-1.86.85-.57,2.96-1.31,4.37-1.79.19-.05.23-.21.23-.37v-1.26c0-.97-.87-1.36-1.93-1.36-1.5,0-2.27.96-2.27,1.77.09.48-.21.58-.73.74-.44.12-.58.05-.6-.25-.02-.51.21-1.13.57-1.49.89-.89,2.55-1.42,3.97-1.42s2.07.6,2.07,1.79v4.83Zm-1.08-2.21c0-.19-.09-.34-.32-.27-1.06.32-2.83.99-3.49,1.51-.28.23-.48.67-.48,1.15,0,.78.5,1.22,1.49,1.22s2.12-.71,2.55-1.08c.21-.19.25-.28.25-.57v-1.97Z"/><path class="cls-1" d="m383.57,497.24c0,.35.05.55.28.69.27.12.64.12,1.04.07.09-.02.16.04.18.14.04.16-.02.25-.16.28-.8.19-1.45.37-2.23.64-.12.03-.18,0-.18-.12v-1.2c0-.12-.11-.19-.18-.11-.69.71-1.61,1.4-2.87,1.4-1.68,0-2.76-.69-2.76-2.48v-4.94c0-.42-.74-.55-1.2-.6-.19-.02-.19-.03-.21-.19-.02-.12.04-.19.18-.21.69-.05,1.43-.18,2.12-.41.14-.07.27,0,.25.16-.04.3-.05.62-.05.99v4.92c0,1.35.81,1.82,2.21,1.82,1.13,0,2.05-.8,2.37-1.43.07-.16.12-.48.12-.71v-4.34c0-.42-.74-.55-1.2-.6-.19-.02-.19-.03-.21-.19-.02-.12.04-.19.18-.21.69-.05,1.43-.18,2.12-.41.14-.07.27,0,.25.16-.04.3-.05.62-.05.99v5.9Zm-4.27-8.5c-.19.12-.25.16-.39.04-.14-.14-.12-.18-.04-.37l1.59-2.23c.28-.44.51-.41.92-.05.41.35.46.57.05.94l-2.14,1.68Z"/><path class="cls-1" d="m389,497.47c0,.51.11.71.39.83.35.12.57.12.9.18.12.02.18.09.18.23,0,.16-.07.23-.21.23-.21,0-1.52-.03-1.79-.03s-1.66.03-1.84.03c-.14,0-.21-.07-.21-.23,0-.14.05-.21.18-.23.34-.05.58-.05.94-.18.28-.12.39-.32.39-.83v-11.08c0-.43-.57-.48-1.04-.53-.19-.02-.19-.04-.21-.19-.02-.11.05-.18.18-.19.62-.14,1.38-.44,1.96-.78.14-.07.27,0,.25.16-.04.3-.05.62-.05.97v11.65Z"/><path class="cls-1" d="m394.49,497.08c0,.92.57,1.06,1.22,1.06.44,0,.85-.19,1.15-.46.09-.09.19-.11.28-.05.11.07.11.18,0,.32-.48.62-1.2,1.08-2.2,1.08-.78,0-1.54-.35-1.54-1.66v-5.84c0-.16-.09-.25-.25-.25h-1.03c-.12,0-.19-.07-.19-.19,0-.09.07-.16.21-.21,1.13-.21,1.54-.97,1.7-2.05.05-.21.09-.3.35-.28.19.02.28.11.28.28v1.49c0,.21.04.27.25.27h1.96c.19,0,.28.05.28.35s-.12.35-.28.35h-1.96c-.16,0-.25.09-.25.25v5.56Z"/><path class="cls-1" d="m401.62,497.47c0,.51.11.71.39.83.35.12.57.12.9.18.12.02.18.09.18.23,0,.16-.07.23-.21.23-.21,0-1.52-.03-1.79-.03s-1.66.03-1.84.03c-.14,0-.21-.07-.21-.23,0-.14.05-.21.18-.23.34-.05.58-.05.94-.18.28-.12.39-.32.39-.83v-5.36c0-.43-.57-.48-1.04-.53-.19-.02-.19-.04-.21-.19-.02-.11.05-.18.18-.19.62-.14,1.38-.44,1.96-.78.14-.07.27,0,.25.16-.04.3-.05.62-.05.97v5.93Zm-.67-8.34c-.57,0-1.03-.42-1.03-1.04,0-.58.46-1.03,1.03-1.03s1.01.44,1.01,1.03c0,.62-.44,1.04-1.01,1.04Z"/><path class="cls-1" d="m418.41,497.47c0,.51.11.71.39.83.35.12.53.12.87.18.11.02.16.09.16.23,0,.16-.07.23-.19.23-.21,0-1.45-.03-1.73-.03-.27,0-1.66.03-1.84.03-.14,0-.19-.02-.19-.21,0-.16.05-.23.16-.25.34-.05.58-.05.94-.18.28-.12.39-.32.39-.83v-4.16c0-1.56-.64-2.25-2.21-2.25-1.04,0-1.77.64-2.2,1.43-.02.07-.04.14-.04.19v4.78c0,.51.11.71.39.83.35.12.57.12.9.18.11.02.16.09.16.23,0,.16-.07.23-.19.23-.19,0-1.5-.03-1.77-.03s-1.66.03-1.84.03c-.14,0-.19-.02-.19-.21,0-.16.05-.23.16-.25.34-.05.58-.05.94-.18.28-.12.39-.32.39-.83v-4.16c0-1.56-.64-2.25-2.19-2.25-1.12,0-1.82.67-2.27,1.52-.07.14-.07.28-.07.48v4.41c0,.51.11.71.39.83.35.12.57.12.9.18.11.02.16.09.16.23,0,.16-.07.23-.19.23-.19,0-1.5-.03-1.77-.03s-1.66.03-1.84.03c-.14,0-.19-.02-.19-.21,0-.16.05-.23.16-.25.34-.05.58-.05.94-.18.28-.12.39-.32.39-.83v-5.43c0-.42-.57-.48-1.04-.53-.19-.02-.19-.04-.21-.19-.02-.11.05-.18.18-.19.62-.14,1.38-.44,1.96-.78.14-.07.27,0,.25.16-.05.37-.05.62-.05.99-.02.21.07.16.19.04.76-.78,1.5-1.35,2.71-1.35s1.91.53,2.41,1.36c.09.12.16.12.25.02.76-.8,1.61-1.38,2.89-1.38,1.65,0,2.64.9,2.64,2.69v4.6Z"/><path class="cls-1" d="m428.57,496.78c0,.66.19,1.15.76,1.15.35,0,.62-.34.69-.5.07-.19.32-.09.25.18-.19.83-.73,1.45-1.52,1.45-.73,0-1.19-.51-1.33-1.38-.05-.12-.11-.16-.18-.07-.74.57-1.95,1.54-3.59,1.54-1.13,0-1.75-.66-1.75-1.72,0-.8.37-1.45.99-1.86.85-.57,2.96-1.31,4.37-1.79.19-.05.23-.21.23-.37v-1.26c0-.97-.87-1.36-1.93-1.36-1.5,0-2.27.96-2.27,1.77.09.48-.21.58-.73.74-.44.12-.58.05-.6-.25-.02-.51.21-1.13.57-1.49.89-.89,2.55-1.42,3.97-1.42s2.07.6,2.07,1.79v4.83Zm-1.08-2.21c0-.19-.09-.34-.32-.27-1.06.32-2.83.99-3.49,1.51-.28.23-.48.67-.48,1.15,0,.78.5,1.22,1.49,1.22s2.12-.71,2.55-1.08c.21-.19.25-.28.25-.57v-1.97Z"/><path class="cls-1" d="m440.18,497.47c0,.51.11.71.39.83.35.12.57.12.9.18.12.02.18.09.18.23,0,.16-.07.23-.21.23-.21,0-1.52-.03-1.79-.03s-1.66.03-1.84.03c-.14,0-.21-.07-.21-.23,0-.14.05-.21.18-.23.34-.05.58-.05.94-.18.28-.12.39-.32.39-.83v-5.95c0-.16-.09-.25-.25-.25h-.9c-.12,0-.19-.07-.19-.19,0-.09.07-.16.21-.21.34-.11.66-.23.92-.35.11-.05.16-.12.16-.21v-1.61c0-3.06,1.4-4.14,2.97-4.14.87,0,1.59.51,1.59.99,0,.41-.16.6-.5.6-.27,0-.42-.12-.5-.37-.12-.35-.39-.69-1.04-.69-.94,0-1.4.83-1.4,2.48v2.74c0,.21.04.27.25.27h1.96c.19,0,.28.05.28.35s-.12.35-.28.35h-1.96c-.16,0-.25.09-.25.25v5.95Z"/><path class="cls-1" d="m447.28,497.47c0,.51.11.71.39.83.35.12.57.12.9.18.12.02.18.09.18.23,0,.16-.07.23-.21.23-.21,0-1.52-.03-1.79-.03s-1.66.03-1.84.03c-.14,0-.21-.07-.21-.23,0-.14.05-.21.18-.23.34-.05.58-.05.94-.18.28-.12.39-.32.39-.83v-5.36c0-.43-.57-.48-1.04-.53-.19-.02-.19-.04-.21-.19-.02-.11.05-.18.18-.19.62-.14,1.38-.44,1.96-.78.14-.07.27,0,.25.16-.04.3-.05.62-.05.97v5.93Zm-.67-8.34c-.57,0-1.03-.42-1.03-1.04,0-.58.46-1.03,1.03-1.03s1.01.44,1.01,1.03c0,.62-.44,1.04-1.01,1.04Z"/><path class="cls-1" d="m453.02,497.47c0,.51.11.71.39.83.35.12.57.12.9.18.12.02.18.09.18.23,0,.16-.07.23-.21.23-.21,0-1.52-.03-1.79-.03s-1.66.03-1.84.03c-.14,0-.21-.07-.21-.23,0-.14.05-.21.18-.23.34-.05.58-.05.94-.18.28-.12.39-.32.39-.83v-11.08c0-.43-.57-.48-1.04-.53-.19-.02-.19-.04-.21-.19-.02-.11.05-.18.18-.19.62-.14,1.38-.44,1.96-.78.14-.07.27,0,.25.16-.04.3-.05.62-.05.97v11.65Z"/><path class="cls-1" d="m463.39,496.78c0,.66.19,1.15.76,1.15.35,0,.62-.34.69-.5.07-.19.32-.09.25.18-.19.83-.73,1.45-1.52,1.45-.73,0-1.19-.51-1.33-1.38-.05-.12-.11-.16-.18-.07-.74.57-1.95,1.54-3.59,1.54-1.13,0-1.75-.66-1.75-1.72,0-.8.37-1.45.99-1.86.85-.57,2.96-1.31,4.37-1.79.19-.05.23-.21.23-.37v-1.26c0-.97-.87-1.36-1.93-1.36-1.5,0-2.27.96-2.27,1.77.09.48-.21.58-.73.74-.44.12-.58.05-.6-.25-.02-.51.21-1.13.57-1.49.89-.89,2.55-1.42,3.97-1.42s2.07.6,2.07,1.79v4.83Zm-1.08-2.21c0-.19-.09-.34-.32-.27-1.06.32-2.83.99-3.49,1.51-.28.23-.48.67-.48,1.15,0,.78.5,1.22,1.49,1.22s2.12-.71,2.55-1.08c.21-.19.25-.28.25-.57v-1.97Z"/><path class="cls-1" d="m254.97,524.81v-3.83h-5.34v-.81h11.64v.81h-5.35v3.83h-.94Zm.49-5.41c-2.12,0-3.79-.6-3.79-1.98s1.67-1.96,3.79-1.96,3.81.57,3.81,1.96-1.65,1.98-3.81,1.98Zm0-3.13c-1.19,0-2.8.27-2.8,1.15s1.61,1.14,2.8,1.14,2.82-.27,2.82-1.14-1.61-1.15-2.82-1.15Zm-5.09-1.45v-.81h10.19v.81h-10.19Zm2.98-1.84v-.84h4.22v.84h-4.22Z"/><path class="cls-1" d="m264.62,524.34v-3.95h.94v3.16h7.58v.8h-8.52Zm7.99-7.74v4.68h-.94v-9.37h.94v3.88h2.01v.81h-2.01Zm-2.98-.55c0,1.98-1.52,3.23-3.32,3.23s-3.32-1.24-3.32-3.2,1.5-3.23,3.3-3.23,3.33,1.25,3.33,3.2Zm-5.69,0c0,1.44,1.03,2.39,2.37,2.39,1.42,0,2.37-.93,2.37-2.36s-.96-2.39-2.39-2.39c-1.34,0-2.36.93-2.36,2.36Z"/><path class="cls-1" d="m290,517.97v6.83h-.94v-12.89h.94v5.25h2.18v.81h-2.18Zm-9.34,3.5v-8.19h5.83v8.19h-5.83Zm4.88-7.37h-3.94v6.56h3.94v-6.56Z"/><path class="cls-1" d="m293.28,523.15v-.81h2.98v-2.63h.94v2.63h3.76v-2.63h.94v2.63h3.01v.81h-11.64Zm5.8-3.75c-2.7,0-4.48-1.3-4.48-3.29s1.78-3.3,4.48-3.3,4.51,1.31,4.51,3.3-1.8,3.29-4.51,3.29Zm0-5.75c-2.14,0-3.55.97-3.55,2.46s1.42,2.46,3.55,2.46,3.58-.96,3.58-2.46-1.42-2.46-3.58-2.46Z"/><path class="cls-1" d="m306.41,523v-.8h11.64v.8h-11.64Zm1.52-3.17v-3.91h7.62v-2.17h-7.64v-.8h8.58v3.76h-7.62v2.3h7.95v.81h-8.89Z"/><path class="cls-1" d="m329.39,517.41h2.18v.81h-2.18v6.58h-.94v-12.89h.94v5.5Zm-9.14,4.73l-.58-.75c3.29-1.64,5.1-4.29,5.34-7.27h-4.91v-.81h5.9c-.07,4.28-2.61,7.14-5.75,8.83Z"/><path class="cls-1" d="m351.02,520.29v4.53h-.94v-3.73h-7.32v-.8h8.26Zm0-3.97v3.29h-.94v-7.7h.94v3.61h2.01v.8h-2.01Zm-9.66-3.41h6.74v.8h-2.89v.72c0,1.71,1.59,3.26,3.14,3.78l-.52.78c-1.33-.55-2.61-1.78-3.13-2.95-.32,1.19-1.83,2.64-3.26,3.29l-.53-.72c1.64-.65,3.35-2.42,3.35-4.17v-.72h-2.91v-.8Z"/><path class="cls-1" d="m251.72,549.2v-4.6h8.16v4.6h-8.16Zm7.21-3.79h-6.28v2.99h6.28v-2.99Zm-2.88-7.98c-.24,3.39-2.7,5.44-5.94,6.43l-.47-.81c2.68-.59,5.06-2.6,5.35-4.81h-4.71v-.81h5.77Zm2.86,6.36v-7.29h.94v7.29h-.94Z"/><path class="cls-1" d="m272.43,549.39v-6.71h-1.78v6.03h-.93v-11.89h.93v5.06h1.78v-5.38h.94v12.89h-.94Zm-4.04-3.17c-.93-.68-2.23-2.21-2.63-3.64-.24,1.51-1.43,2.98-2.76,3.97l-.65-.69c1.42-.88,2.95-2.94,2.95-5.38v-1.46h-2.57v-.8h5.94v.8h-2.45v1.42c0,2.54,1.49,4.26,2.79,5.1l-.63.69Z"/><path class="cls-1" d="m277.92,548.98v-3.91h.94v3.11h7.57v.8h-8.51Zm4.56-8.5v-.81h2.73v-3.17h.94v9.37h-.94v-5.38h-2.73Zm.12,3.33c-1.39-.66-2.68-1.81-3.22-3.22-.38,1.4-1.77,2.85-3.24,3.66l-.58-.74c1.67-.8,3.33-2.55,3.33-4.66v-1.62h.93v1.59c0,2.21,1.78,3.63,3.33,4.22l-.56.77Z"/><path class="cls-1" d="m303.6,549.17v-4.65h4.04v4.65h-4.04Zm-3.55-.01h-1.49v-2.74h3.14v-1.15h-3.19v-.74h4.07v2.58h-3.16v1.33c1.36,0,2.8-.09,3.51-.28l.13.77c-.71.15-1.81.24-3.02.24Zm6.73-3.92h-2.32v3.24h2.32v-3.24Zm-3.23-4.04v1.34h5.37v.81h-11.64v-.81h5.32v-1.36c-2.37-.09-3.86-.78-3.86-2.18,0-1.49,1.71-2.18,4.37-2.18s4.38.69,4.38,2.18-1.5,2.11-3.94,2.2Zm-3.83-2.2c0,.93,1.34,1.43,3.39,1.43s3.44-.5,3.44-1.43-1.39-1.4-3.44-1.4-3.39.47-3.39,1.4Z"/><path class="cls-1" d="m312.74,549.2v-4.6h8.16v4.6h-8.16Zm7.21-3.79h-6.28v2.99h6.28v-2.99Zm-2.88-7.98c-.24,3.39-2.7,5.44-5.94,6.43l-.47-.81c2.68-.59,5.06-2.6,5.35-4.81h-4.71v-.81h5.77Zm2.86,6.36v-7.29h.94v7.29h-.94Z"/></g></g></svg>